<svg id="Camada_1" data-name="Camada 1" xmlns="http://www.w3.org/2000/svg" viewBox="0 0 434.95 108.17"><defs><style>.cls-1{fill:#e36259;}.cls-2{fill:#f5a728;}</style></defs><title>logo_final</title><path class="cls-1" d="M0,4.68H10.43V95.73H55.35v8.89H0Z"/><path class="cls-1" d="M63.51,4.68H73.94v99.95H63.51Z"/><path class="cls-1" d="M87.58,1.4l73.67,80.22V4.68h10.43V108.17L98,27.81v76.81H87.58Z"/><path class="cls-1" d="M195.74,104.62H185.32V4.68h10.43Zm7.62-56.82L246.49,4.68h13.71l-49.14,49,52.41,50.94H248.69L203.37,60.37Z"/><path class="cls-1" d="M264.54,4.68h12.3l23.8,38.07-6.35,9.56Zm68.72,0h12l-35,56.42v43.52H299.84V61.1Z"/><path class="cls-1" d="M390.35,0l44.59,104.62H423.58L390.35,25.2l-33.56,79.42H345.43Z"/><circle class="cls-2" cx="390.51" cy="78.11" r="8.6"/></svg>